<svg width="24" height="24" viewBox="0 0 24 24" fill="none" xmlns="http://www.w3.org/2000/svg">
<rect width="24" height="24" rx="1" fill="url(#paint0_linear_284_112)"/>
<path d="M9.54261 17.1193C8.90625 17.1193 8.33949 17.0099 7.84233 16.7912C7.34801 16.5696 6.95739 16.2656 6.67045 15.8793C6.38636 15.4901 6.24006 15.0412 6.23153 14.5327H8.08949C8.10085 14.7457 8.17045 14.9332 8.2983 15.0952C8.42898 15.2543 8.60227 15.3778 8.81818 15.4659C9.03409 15.554 9.27699 15.598 9.54688 15.598C9.82812 15.598 10.0767 15.5483 10.2926 15.4489C10.5085 15.3494 10.6776 15.2116 10.7997 15.0355C10.9219 14.8594 10.983 14.6562 10.983 14.4261C10.983 14.1932 10.9176 13.9872 10.7869 13.8082C10.6591 13.6264 10.4744 13.4844 10.233 13.3821C9.99432 13.2798 9.71023 13.2287 9.38068 13.2287H8.56676V11.8736H9.38068C9.65909 11.8736 9.90483 11.8253 10.1179 11.7287C10.3338 11.6321 10.5014 11.4986 10.6207 11.3281C10.7401 11.1548 10.7997 10.9531 10.7997 10.723C10.7997 10.5043 10.7472 10.3125 10.642 10.1477C10.5398 9.98011 10.3949 9.84943 10.2074 9.75568C10.0227 9.66193 9.80682 9.61506 9.55966 9.61506C9.30966 9.61506 9.08097 9.66051 8.87358 9.75142C8.66619 9.83949 8.5 9.96591 8.375 10.1307C8.25 10.2955 8.18324 10.4886 8.17472 10.7102H6.40625C6.41477 10.2074 6.55824 9.7642 6.83665 9.38068C7.11506 8.99716 7.49006 8.69744 7.96165 8.48153C8.43608 8.26278 8.97159 8.15341 9.56818 8.15341C10.1705 8.15341 10.6974 8.26278 11.1491 8.48153C11.6009 8.70028 11.9517 8.99574 12.2017 9.3679C12.4545 9.73722 12.5795 10.152 12.5767 10.6122C12.5795 11.1009 12.4276 11.5085 12.1207 11.8352C11.8168 12.1619 11.4205 12.3693 10.9318 12.4574V12.5256C11.5739 12.608 12.0625 12.831 12.3977 13.1946C12.7358 13.5554 12.9034 14.0071 12.9006 14.5497C12.9034 15.0469 12.7599 15.4886 12.4702 15.875C12.1832 16.2614 11.7869 16.5653 11.2812 16.7869C10.7756 17.0085 10.196 17.1193 9.54261 17.1193ZM18.0238 8.27273V17H16.1786V10.0241H16.1275L14.1289 11.277V9.64062L16.2894 8.27273H18.0238Z" fill="white"/>
<defs>
<linearGradient id="paint0_linear_284_112" x1="0" y1="12" x2="24" y2="12" gradientUnits="userSpaceOnUse">
<stop stop-color="#808284"/>
<stop offset="1" stop-color="#0069A7"/>
</linearGradient>
</defs>
</svg>
