<svg width="21" height="18" viewBox="0 0 21 18" fill="none" xmlns="http://www.w3.org/2000/svg">
<path d="M19.5 0H1.5C0.672656 0 0 0.672656 0 1.5V13.5C0 14.3273 0.672656 15 1.5 15H15.0141L19.5047 17.993L19.5 15C20.3273 15 21 14.3273 21 13.5V1.5C21 0.672656 20.3273 0 19.5 0Z" fill="url(#paint0_linear_286_226)"/>
<path d="M13.5 7.5C13.5 4.56094 12.293 1.90547 10.3477 0H1.5C0.672656 0 0 0.672656 0 1.5V13.5C0 14.3273 0.672656 15 1.5 15H10.3477C12.293 13.0945 13.5 10.4391 13.5 7.5Z" fill="url(#paint1_linear_286_226)"/>
<path d="M3 7.5C3 7.89782 3.15804 8.27936 3.43934 8.56066C3.72064 8.84196 4.10218 9 4.5 9C4.89782 9 5.27936 8.84196 5.56066 8.56066C5.84196 8.27936 6 7.89782 6 7.5C6 7.10218 5.84196 6.72064 5.56066 6.43934C5.27936 6.15804 4.89782 6 4.5 6C4.10218 6 3.72064 6.15804 3.43934 6.43934C3.15804 6.72064 3 7.10218 3 7.5Z" fill="white"/>
<path d="M9 7.5C9 7.89782 9.15804 8.27936 9.43934 8.56066C9.72064 8.84196 10.1022 9 10.5 9C10.8978 9 11.2794 8.84196 11.5607 8.56066C11.842 8.27936 12 7.89782 12 7.5C12 7.10218 11.842 6.72064 11.5607 6.43934C11.2794 6.15804 10.8978 6 10.5 6C10.1022 6 9.72064 6.15804 9.43934 6.43934C9.15804 6.72064 9 7.10218 9 7.5Z" fill="white"/>
<path d="M15 7.5C15 7.89782 15.158 8.27936 15.4393 8.56066C15.7206 8.84196 16.1022 9 16.5 9C16.8978 9 17.2794 8.84196 17.5607 8.56066C17.842 8.27936 18 7.89782 18 7.5C18 7.10218 17.842 6.72064 17.5607 6.43934C17.2794 6.15804 16.8978 6 16.5 6C16.1022 6 15.7206 6.15804 15.4393 6.43934C15.158 6.72064 15 7.10218 15 7.5Z" fill="white"/>
<defs>
<linearGradient id="paint0_linear_286_226" x1="0" y1="8.99648" x2="21" y2="8.99648" gradientUnits="userSpaceOnUse">
<stop stop-color="#808284"/>
<stop offset="1" stop-color="#0069A7"/>
</linearGradient>
<linearGradient id="paint1_linear_286_226" x1="0" y1="7.5" x2="13.5" y2="7.5" gradientUnits="userSpaceOnUse">
<stop stop-color="#808284"/>
<stop offset="1" stop-color="#0069A7"/>
</linearGradient>
</defs>
</svg>
