<svg width="24" height="24" viewBox="0 0 24 24" fill="none" xmlns="http://www.w3.org/2000/svg">
<g clip-path="url(#clip0_286_219)">
<path d="M12 0.5C18.3512 0.5 23.5 5.64877 23.5 12C23.5 18.3512 18.3512 23.5 12 23.5C5.64877 23.5 0.5 18.3512 0.5 12C0.5 5.64877 5.64877 0.5 12 0.5Z" fill="white" stroke="url(#paint0_linear_286_219)"/>
<path d="M18.988 11.5613H13.8741C13.4912 11.5613 13.1777 11.2478 13.1777 10.8649V10.4078C13.1777 10.0249 13.4912 9.71143 13.8741 9.71143H18.988C19.3709 9.71143 19.6844 10.0249 19.6844 10.4078V10.8649C19.6844 11.2478 19.3709 11.5613 18.988 11.5613Z" fill="url(#paint1_linear_286_219)"/>
<path d="M18.3356 13.4109H13.2218C12.8389 13.4109 12.5254 13.0974 12.5254 12.7145V12.2574C12.5254 11.8745 12.8389 11.561 13.2218 11.561H18.3356C18.7185 11.561 19.032 11.8745 19.032 12.2574V12.7145C19.032 13.0974 18.7185 13.4109 18.3356 13.4109Z" fill="url(#paint2_linear_286_219)"/>
<path d="M17.6833 15.2605H12.5694C12.1865 15.2605 11.873 14.947 11.873 14.5641V14.107C11.873 13.7241 12.1865 13.4106 12.5694 13.4106H17.6833C18.0662 13.4106 18.3797 13.7241 18.3797 14.107V14.5641C18.3797 14.947 18.0662 15.2605 17.6833 15.2605Z" fill="url(#paint3_linear_286_219)"/>
<path d="M17.031 17.1101H11.9171C11.5342 17.1101 11.2207 16.7966 11.2207 16.4138V15.9566C11.2207 15.5738 11.5342 15.2603 11.9171 15.2603H17.031C17.4138 15.2603 17.7273 15.5738 17.7273 15.9566V16.4138C17.7273 16.797 17.4138 17.1101 17.031 17.1101Z" fill="url(#paint4_linear_286_219)"/>
<path d="M13.8124 9.71142C13.8124 9.71142 14.5114 8.29167 14.2396 6.61579C13.9677 4.94029 12.4823 4.00992 12.3736 5.11955C12.2648 6.22917 12.2577 7.76704 11.2201 9.18904C10.6171 10.0155 8.80469 10.785 8.80469 10.785V16.6752C8.80469 16.6752 9.24006 16.6752 9.82731 16.6752C10.4146 16.6752 10.5454 17.1105 12.1122 17.1105C12.1122 17.1102 14.2257 13.1063 13.8124 9.71142Z" fill="url(#paint5_linear_286_219)"/>
<path d="M8.80492 10.2339H5.06055V17.3424H8.80492V10.2339Z" fill="#0069A7"/>
<g opacity="0.2">
<path d="M5.06055 13.3854V10.2339H8.80492L5.06055 13.3854Z" fill="white"/>
</g>
<path d="M8.81055 10.7828V16.6748H9.40267V10.502C9.0708 10.6711 8.83005 10.7746 8.81055 10.7828Z" fill="#E0E0E0"/>
<path d="M18.338 11.5615H13.7285L18.989 12.019C18.8911 11.7531 18.6369 11.5615 18.338 11.5615Z" fill="#E0E0E0"/>
<path d="M17.6851 13.4106H13.9707L18.3361 13.8681C18.2382 13.6023 17.984 13.4106 17.6851 13.4106Z" fill="#E0E0E0"/>
<path d="M17.0312 15.2607H13.3164L17.6825 15.7182C17.5843 15.4524 17.33 15.2607 17.0312 15.2607Z" fill="#E0E0E0"/>
</g>
<defs>
<linearGradient id="paint0_linear_286_219" x1="0" y1="12" x2="24" y2="12" gradientUnits="userSpaceOnUse">
<stop stop-color="#808284"/>
<stop offset="1" stop-color="#0069A7"/>
</linearGradient>
<linearGradient id="paint1_linear_286_219" x1="13.1777" y1="10.6364" x2="19.6844" y2="10.6364" gradientUnits="userSpaceOnUse">
<stop stop-color="#808284"/>
<stop offset="1" stop-color="#0069A7"/>
</linearGradient>
<linearGradient id="paint2_linear_286_219" x1="12.5254" y1="12.486" x2="19.032" y2="12.486" gradientUnits="userSpaceOnUse">
<stop stop-color="#808284"/>
<stop offset="1" stop-color="#0069A7"/>
</linearGradient>
<linearGradient id="paint3_linear_286_219" x1="11.873" y1="14.3356" x2="18.3797" y2="14.3356" gradientUnits="userSpaceOnUse">
<stop stop-color="#808284"/>
<stop offset="1" stop-color="#0069A7"/>
</linearGradient>
<linearGradient id="paint4_linear_286_219" x1="11.2207" y1="16.1852" x2="17.7273" y2="16.1852" gradientUnits="userSpaceOnUse">
<stop stop-color="#808284"/>
<stop offset="1" stop-color="#0069A7"/>
</linearGradient>
<linearGradient id="paint5_linear_286_219" x1="8.80469" y1="10.8736" x2="14.3024" y2="10.8736" gradientUnits="userSpaceOnUse">
<stop stop-color="#808284"/>
<stop offset="1" stop-color="#0069A7"/>
</linearGradient>
<clipPath id="clip0_286_219">
<rect width="24" height="24" fill="white"/>
</clipPath>
</defs>
</svg>
