<svg width="20" height="20" viewBox="0 0 20 20" fill="none" xmlns="http://www.w3.org/2000/svg">
<path fill-rule="evenodd" clip-rule="evenodd" d="M5.25007 0.38782C6.54878 0.0992 8.1243 0 10 0C11.8757 0 13.4512 0.0992 14.7499 0.38782C16.06 0.67897 17.1488 1.176 17.9864 2.01358C18.824 2.85116 19.321 3.94002 19.6122 5.25007C19.9008 6.54878 20 8.1243 20 10C20 11.8757 19.9008 13.4512 19.6122 14.7499C19.321 16.06 18.824 17.1488 17.9864 17.9864C17.1488 18.824 16.06 19.321 14.7499 19.6122C13.4512 19.9008 11.8757 20 10 20C8.1243 20 6.54878 19.9008 5.25007 19.6122C3.94002 19.321 2.85116 18.824 2.01358 17.9864C1.176 17.1488 0.67897 16.06 0.38782 14.7499C0.0992 13.4512 0 11.8757 0 10C0 8.1243 0.0992 6.54878 0.38782 5.25007C0.67897 3.94002 1.176 2.85116 2.01358 2.01358C2.85116 1.176 3.94002 0.67897 5.25007 0.38782ZM7 9.5C7 8.1193 8.1193 7 9.5 7C10.8807 7 12 8.1193 12 9.5C12 10.8807 10.8807 12 9.5 12C8.1193 12 7 10.8807 7 9.5ZM9.5 5C7.01472 5 5 7.01472 5 9.5C5 11.9853 7.01472 14 9.5 14C10.3805 14 11.202 13.7471 11.8957 13.31L13.2929 14.7071C13.6834 15.0976 14.3166 15.0976 14.7071 14.7071C15.0976 14.3166 15.0976 13.6834 14.7071 13.2929L13.31 11.8957C13.7471 11.202 14 10.3805 14 9.5C14 7.01472 11.9853 5 9.5 5Z" fill="url(#paint0_linear_286_244)"/>
<defs>
<linearGradient id="paint0_linear_286_244" x1="0" y1="10" x2="20" y2="10" gradientUnits="userSpaceOnUse">
<stop stop-color="#808284"/>
<stop offset="1" stop-color="#0069A7"/>
</linearGradient>
</defs>
</svg>
