<svg width="24" height="24" viewBox="0 0 24 24" fill="none" xmlns="http://www.w3.org/2000/svg">
<path d="M11.3702 20.025C11.1985 20.4332 10.62 20.4332 10.4484 20.025L8.05147 14.3248C7.99518 14.1909 7.88346 14.0881 7.74537 14.0432L1.46021 11.9965C0.999959 11.8467 0.99996 11.1955 1.46021 11.0457L7.74537 8.99903C7.88346 8.95406 7.99518 8.85128 8.05147 8.71741L10.4484 3.01721C10.62 2.60896 11.1985 2.60896 11.3702 3.01721L13.7671 8.71741C13.8234 8.85128 13.9351 8.95406 14.0732 8.99903L20.3583 11.0457C20.8186 11.1955 20.8186 11.8467 20.3583 11.9965L14.0732 14.0432C13.9351 14.0881 13.8234 14.1909 13.7671 14.3248L11.3702 20.025Z" fill="url(#paint0_linear_286_262)"/>
<path d="M17.9038 1.09612C18.0755 0.687865 18.6539 0.687865 18.8256 1.09612L19.7493 3.29275C19.8056 3.42662 19.9173 3.52941 20.0554 3.57437L22.3592 4.32457C22.8195 4.47444 22.8195 5.12556 22.3592 5.27543L20.0554 6.02563C19.9173 6.07059 19.8056 6.17338 19.7493 6.30725L18.8256 8.50388C18.6539 8.91214 18.0755 8.91214 17.9038 8.50388L16.9801 6.30725C16.9238 6.17338 16.8121 6.07059 16.674 6.02563L14.3702 5.27543C13.9099 5.12556 13.9099 4.47444 14.3702 4.32457L16.674 3.57437C16.8121 3.52941 16.9238 3.42662 16.9801 3.29275L17.9038 1.09612Z" fill="url(#paint1_linear_286_262)"/>
<path d="M17.9038 15.496C18.0755 15.0878 18.6539 15.0878 18.8256 15.496L19.7493 17.6927C19.8056 17.8265 19.9173 17.9293 20.0554 17.9743L22.3592 18.7245C22.8195 18.8743 22.8195 19.5255 22.3592 19.6753L20.0554 20.4255C19.9173 20.4705 19.8056 20.5733 19.7493 20.7071L18.8256 22.9038C18.6539 23.312 18.0755 23.312 17.9038 22.9038L16.9801 20.7071C16.9238 20.5733 16.8121 20.4705 16.674 20.4255L14.3702 19.6753C13.9099 19.5255 13.9099 18.8743 14.3702 18.7245L16.674 17.9743C16.8121 17.9293 16.9238 17.8265 16.9801 17.6927L17.9038 15.496Z" fill="url(#paint2_linear_286_262)"/>
<defs>
<linearGradient id="paint0_linear_286_262" x1="21.8184" y1="11.5211" x2="0.000177383" y2="11.5211" gradientUnits="userSpaceOnUse">
<stop stop-color="#808284"/>
<stop offset="1" stop-color="#0069A7"/>
</linearGradient>
<linearGradient id="paint1_linear_286_262" x1="12.9102" y1="4.8" x2="23.8192" y2="4.8" gradientUnits="userSpaceOnUse">
<stop stop-color="#808284"/>
<stop offset="1" stop-color="#0069A7"/>
</linearGradient>
<linearGradient id="paint2_linear_286_262" x1="12.9102" y1="19.1999" x2="23.8192" y2="19.1999" gradientUnits="userSpaceOnUse">
<stop stop-color="#808284"/>
<stop offset="1" stop-color="#0069A7"/>
</linearGradient>
</defs>
</svg>
