<svg width="21" height="20" viewBox="0 0 21 20" fill="none" xmlns="http://www.w3.org/2000/svg">
<path d="M9.90004 0.345362C10.0497 -0.115294 10.7014 -0.115294 10.8511 0.345361L12.9575 6.82814C13.0244 7.03415 13.2164 7.17363 13.433 7.17363H20.2494C20.7338 7.17363 20.9352 7.79344 20.5433 8.07814L15.0287 12.0847C14.8535 12.212 14.7801 12.4377 14.8471 12.6437L16.9535 19.1265C17.1031 19.5872 16.5759 19.9702 16.184 19.6855L10.6695 15.679C10.4942 15.5516 10.2569 15.5516 10.0817 15.679L4.5671 19.6855C4.17524 19.9702 3.648 19.5872 3.79767 19.1265L5.90406 12.6437C5.97099 12.4377 5.89766 12.212 5.72242 12.0847L0.20784 8.07814C-0.184017 7.79344 0.0173705 7.17363 0.501732 7.17363H7.31813C7.53474 7.17363 7.72672 7.03415 7.79366 6.82814L9.90004 0.345362Z" fill="url(#paint0_linear_286_253)"/>
<defs>
<linearGradient id="paint0_linear_286_253" x1="-1.03711" y1="9.73594" x2="21.7882" y2="9.73594" gradientUnits="userSpaceOnUse">
<stop stop-color="#808284"/>
<stop offset="1" stop-color="#0069A7"/>
</linearGradient>
</defs>
</svg>
