<svg width="20" height="21" viewBox="0 0 20 21" fill="none" xmlns="http://www.w3.org/2000/svg">
<path fill-rule="evenodd" clip-rule="evenodd" d="M10.052 1.15089e-06H9.948C9.0495 -2.88491e-05 8.3003 -4.88162e-05 7.70552 0.0799112C7.07773 0.164321 6.51093 0.349991 6.05546 0.805461C5.59999 1.26093 5.41432 1.82773 5.32991 2.45552C5.24995 3.0503 5.24997 3.79951 5.25 4.69799V4.77572C3.22882 4.84185 2.01511 5.07803 1.17157 5.92157C1.19209e-07 7.09315 0 8.9788 0 12.75C0 16.5212 1.19209e-07 18.4069 1.17157 19.5784C2.34315 20.75 4.22876 20.75 8 20.75H12C15.7712 20.75 17.6569 20.75 18.8284 19.5784C20 18.4069 20 16.5212 20 12.75C20 8.9788 20 7.09315 18.8284 5.92157C17.9849 5.07803 16.7712 4.84185 14.75 4.77572V4.69801C14.75 3.79954 14.7501 3.0503 14.6701 2.45552C14.5857 1.82773 14.4 1.26093 13.9445 0.805461C13.4891 0.349991 12.9223 0.164321 12.2945 0.0799112C11.6997 -4.88162e-05 10.9505 -2.88491e-05 10.052 1.15089e-06ZM13.25 4.75189V4.75C13.25 3.78599 13.2484 3.13843 13.1835 2.6554C13.1214 2.19393 13.0142 1.99644 12.8839 1.86612C12.7536 1.7358 12.5561 1.62858 12.0946 1.56654C11.6116 1.5016 10.964 1.5 10 1.5C9.036 1.5 8.3884 1.5016 7.90539 1.56654C7.44393 1.62858 7.24644 1.7358 7.11612 1.86612C6.9858 1.99644 6.87858 2.19393 6.81654 2.6554C6.7516 3.13843 6.75 3.78599 6.75 4.75V4.75189C7.14203 4.75 7.55807 4.75 8 4.75H12C12.4419 4.75 12.858 4.75 13.25 4.75189ZM15 7.75C15 8.30229 14.5523 8.75 14 8.75C13.4477 8.75 13 8.30229 13 7.75C13 7.19772 13.4477 6.75 14 6.75C14.5523 6.75 15 7.19772 15 7.75ZM6 8.75C6.55228 8.75 7 8.30229 7 7.75C7 7.19772 6.55228 6.75 6 6.75C5.44772 6.75 5 7.19772 5 7.75C5 8.30229 5.44772 8.75 6 8.75Z" fill="url(#paint0_linear_286_264)"/>
<defs>
<linearGradient id="paint0_linear_286_264" x1="0" y1="10.375" x2="20" y2="10.375" gradientUnits="userSpaceOnUse">
<stop stop-color="#808284"/>
<stop offset="1" stop-color="#0069A7"/>
</linearGradient>
</defs>
</svg>
