<svg width="18" height="20" viewBox="0 0 18 20" fill="none" xmlns="http://www.w3.org/2000/svg">
<path d="M0 4.38597C0 3.90152 0.34538 3.50879 0.77143 3.50879L3.43567 3.50832C3.96502 3.49306 4.43202 3.11033 4.61214 2.54412C4.61688 2.52923 4.62232 2.51087 4.64185 2.44424L4.75665 2.05256C4.8269 1.81241 4.8881 1.60318 4.97375 1.41617C5.31209 0.677362 5.93808 0.164322 6.66147 0.0329718C6.84457 -0.000278201 7.0385 -0.000138126 7.2611 2.18739e-05H10.7391C10.9617 -0.000138126 11.1556 -0.000278201 11.3387 0.0329718C12.0621 0.164322 12.6881 0.677362 13.0264 1.41617C13.1121 1.60318 13.1733 1.81241 13.2435 2.05256L13.3583 2.44424C13.3778 2.51087 13.3833 2.52923 13.388 2.54412C13.5682 3.11033 14.1278 3.49353 14.6571 3.50879H17.2286C17.6546 3.50879 18 3.90152 18 4.38597C18 4.87043 17.6546 5.26316 17.2286 5.26316H0.77143C0.34538 5.26316 0 4.87043 0 4.38597Z" fill="url(#paint0_linear_286_278)"/>
<path fill-rule="evenodd" clip-rule="evenodd" d="M8.5956 20.0001H9.4044C12.1871 20.0001 13.5785 20.0001 14.4831 19.1142C15.3878 18.2283 15.4803 16.7751 15.6654 13.8686L15.9321 9.6807C16.0326 8.1037 16.0828 7.31524 15.6289 6.81558C15.1751 6.31592 14.4087 6.31592 12.876 6.31592H5.12404C3.59127 6.31592 2.82488 6.31592 2.37105 6.81558C1.91722 7.31524 1.96744 8.1037 2.06788 9.6807L2.33459 13.8686C2.5197 16.7751 2.61225 18.2283 3.51689 19.1142C4.42153 20.0001 5.81289 20.0001 8.5956 20.0001ZM7.2463 10.1886C7.2051 9.7548 6.83753 9.4382 6.42537 9.4816C6.01321 9.525 5.71251 9.9119 5.75372 10.3457L6.25372 15.6089C6.29494 16.0427 6.66247 16.3593 7.0746 16.3159C7.4868 16.2725 7.7875 15.8856 7.7463 15.4518L7.2463 10.1886ZM11.5746 9.4816C11.9868 9.525 12.2875 9.9119 12.2463 10.3457L11.7463 15.6089C11.7051 16.0427 11.3375 16.3593 10.9254 16.3159C10.5132 16.2725 10.2125 15.8856 10.2537 15.4518L10.7537 10.1886C10.7949 9.7548 11.1625 9.4382 11.5746 9.4816Z" fill="url(#paint1_linear_286_278)"/>
<defs>
<linearGradient id="paint0_linear_286_278" x1="0" y1="2.63158" x2="18" y2="2.63158" gradientUnits="userSpaceOnUse">
<stop stop-color="#808284"/>
<stop offset="1" stop-color="#0069A7"/>
</linearGradient>
<linearGradient id="paint1_linear_286_278" x1="2" y1="13.158" x2="16" y2="13.158" gradientUnits="userSpaceOnUse">
<stop stop-color="#808284"/>
<stop offset="1" stop-color="#0069A7"/>
</linearGradient>
</defs>
</svg>
