<svg width="24" height="24" viewBox="0 0 24 24" fill="none" xmlns="http://www.w3.org/2000/svg">
<circle cx="12" cy="12" r="12" fill="url(#paint0_linear_286_284)"/>
<circle cx="12" cy="8" r="3.5" stroke="white"/>
<circle cx="20" cy="8" r="2.5" stroke="white"/>
<circle cx="4" cy="8" r="2.5" stroke="white"/>
<mask id="mask0_286_284" style="mask-type:alpha" maskUnits="userSpaceOnUse" x="0" y="0" width="24" height="24">
<circle cx="12" cy="12" r="12" fill="url(#paint1_linear_286_284)"/>
</mask>
<g mask="url(#mask0_286_284)">
<path d="M20 12.5C24.1421 12.5 27.5 15.8579 27.5 20C27.5 20.535 27.4429 20.8335 27.3779 20.9844C27.3624 21.0203 27.3487 21.0403 27.3408 21.0508C27.2832 21.0509 27.1416 21.0196 26.877 20.8721C26.6185 20.7279 26.3133 20.5152 25.9512 20.252C25.2429 19.7371 24.3482 19.0485 23.3574 18.4971C22.3634 17.9438 21.2241 17.5 20 17.5C18.7759 17.5 17.6366 17.9438 16.6426 18.4971C15.6518 19.0485 14.7571 19.7371 14.0488 20.252C13.6867 20.5152 13.3815 20.7279 13.123 20.8721C12.8569 21.0205 12.7152 21.0512 12.6582 21.0508C12.6503 21.0401 12.6373 21.0198 12.6221 20.9844C12.5571 20.8335 12.5 20.535 12.5 20C12.5 15.8579 15.8579 12.5 20 12.5Z" fill="white" stroke="white"/>
<path d="M12 12C16.4183 12 20 15.5817 20 20C20 24.1613 16.8227 18.7107 12.7617 18.0625C12.9161 18.683 13 19.3317 13 20C13 23.1631 11.1643 20.772 8.5 19.1582C5.83573 20.772 4 23.1631 4 20C4 19.3318 4.08295 18.683 4.2373 18.0625C0.176829 18.7114 -3 24.161 -3 20C-3 15.5817 0.581722 12 5 12C6.25523 12 7.44276 12.2895 8.5 12.8047C9.55724 12.2895 10.7448 12 12 12Z" fill="white"/>
</g>
<defs>
<linearGradient id="paint0_linear_286_284" x1="-3.5" y1="22.5" x2="21.5" y2="8" gradientUnits="userSpaceOnUse">
<stop stop-color="#808284"/>
<stop offset="1" stop-color="#0069A7"/>
</linearGradient>
<linearGradient id="paint1_linear_286_284" x1="-3.5" y1="22.5" x2="21.5" y2="8" gradientUnits="userSpaceOnUse">
<stop stop-color="#808284"/>
<stop offset="1" stop-color="#0069A7"/>
</linearGradient>
</defs>
</svg>
